PathFileType	4	(X/Y/Z)	C:/Users/opensim2020/Desktop/walking_exp_matlab/subject06_walking11_run.trc																																																																																																																																								
DataRate	CameraRate	NumFrames	NumMarkers	Units	OrigDataRate	OrigDataStartFrame	OrigNumFrames																																																																																																																																				
100	100	8	46	mm	100	252	106																																																																																																																																				
Frame#	Time	LKNE			RKNE			RFRM			RWRA			RWRB			RELB			RUPA			RSHO			LWRA			RFIN			RFHD			CLAV			RASI			RTHI			LSHO			LTHI			RBHD			C7			LTIB			LANK			LTOE			LBHD			RTIB			RBAK			LHEE			RANK			STRN			RHEE			RTOE			T10			LUPA			LFHD			LPSI			RPSI			LASI			LFRM			LWRB			LFIN			LELB			*39			*40			*41			*42			*43			*44			*45		
		X1	Y1	Z1	X2	Y2	Z2	X3	Y3	Z3	X4	Y4	Z4	X5	Y5	Z5	X6	Y6	Z6	X7	Y7	Z7	X8	Y8	Z8	X9	Y9	Z9	X10	Y10	Z10	X11	Y11	Z11	X12	Y12	Z12	X13	Y13	Z13	X14	Y14	Z14	X15	Y15	Z15	X16	Y16	Z16	X17	Y17	Z17	X18	Y18	Z18	X19	Y19	Z19	X20	Y20	Z20	X21	Y21	Z21	X22	Y22	Z22	X23	Y23	Z23	X24	Y24	Z24	X25	Y25	Z25	X26	Y26	Z26	X27	Y27	Z27	X28	Y28	Z28	X29	Y29	Z29	X30	Y30	Z30	X31	Y31	Z31	X32	Y32	Z32	X33	Y33	Z33	X34	Y34	Z34	X35	Y35	Z35	X36	Y36	Z36	X37	Y37	Z37	X38	Y38	Z38	X39	Y39	Z39	X40	Y40	Z40	X41	Y41	Z41	X42	Y42	Z42	X43	Y43	Z43	X44	Y44	Z44	X45	Y45	Z45	X46	Y46	Z46
																																																																																																																																											
67	0.66	515.53448	525.51141	99.21087	907.83453	629.06323	348.20483	573.35071	1227.078	467.88577	700.30933	1208.7417	405.51083	685.03137	1157.30261	444.35056	501.46301	1298.68408	473.78461	566.33154	1376.09717	426.63916	720.96472	1451.49658	339.44003	872.87561	1260.15027	75.86212	767.46991	1162.25562	432.2926	811.59949	1674.5885	275.10617	806.36035	1392.86938	210.76634	764.19751	994.78833	321.42847	833.47925	728.84338	379.9888	783.88098	1436.17578	49.41095	584.18793	677.04523	66.48318	686.17719	1613.34241	256.0603	705.18951	1473.82166	178.09419	327.90002	348.48584	106.77631	211.60251	225.88881	142.50468	210.97728	79.00503	196.65211	701.23834	1618.32764	127.4493	914.01703	362.83459	326.63956	605.82306	1332.12512	229.72198	186.80539	263.67911	180.09596	913.04523	180.68475	267.13931	829.64648	1212.3158	219.67722	872.71643	167.21123	220.43912	1060.50574	119.43278	252.07372	627.50836	1164.0509	187.52687	777.96729	1270.7843	-60.34502	827.27356	1685.23071	144.19386	623.62073	1025.03052	128.13744	623.96655	1039.27087	292.36737	765.34045	962.80652	113.0658	853.11591	1169.84534	-11.68455	900.57214	1197.11316	91.22865	940.90723	1260.15442	141.70064	765.67395	1172.55054	-105.1127	NaN	NaN	NaN	717.47192	1714.72827	189.522	NaN	NaN	NaN	NaN	NaN	NaN	NaN	NaN	NaN	NaN	NaN	NaN	NaN	NaN	NaN
68	0.67	555.35919	529.9646	97.51231	942.78131	625.76575	346.51993	610.97546	1231.44983	465.37808	738.82098	1214.91272	403.95847	723.72046	1162.97925	442.15549	538.32391	1302.0144	471.79886	604.61884	1379.80383	425.43063	759.92908	1455.24036	339.90463	911.99164	1268.05396	75.84595	806.36017	1168.38831	430.33966	850.37244	1678.92261	276.27887	845.05267	1397.36536	211.18755	804.54877	998.63446	321.53647	868.57147	726.2854	379.59662	822.12231	1441.85754	50.20572	625.53552	680.83508	65.50618	725.03729	1617.57275	257.27771	743.23474	1477.69885	178.938	362.77563	358.9122	104.47261	238.07021	243.25002	140.58824	239.14183	94.27386	189.66748	739.98737	1622.8385	128.68396	961.33197	359.92542	323.62817	645.07617	1336.45605	229.30908	213.60539	279.43134	179.32645	976.13593	178.90865	262.84106	869.3783	1216.95557	219.5273	937.42188	166.71309	215.53087	1125.95825	119.18841	247.12952	667.97589	1169.42957	187.20654	817.25269	1276.64685	-59.9661	865.86719	1689.79077	145.34317	666.104	1029.8158	125.78898	664.4762	1042.10669	290.46106	806.7616	967.13458	112.49278	893.0824	1176.37769	-10.53445	939.08002	1205.17468	92.86048	978.48132	1269.01685	142.94331	805.95752	1177.42688	-104.75444	NaN	NaN	NaN	756.10095	1719.12329	190.76411	NaN	NaN	NaN	NaN	NaN	NaN	NaN	NaN	NaN	NaN	NaN	NaN	NaN	NaN	NaN
69	0.68	598.02295	532.20135	95.92268	976.03784	620.20477	344.40869	649.41595	1233.94629	463.52533	777.98633	1219.46082	402.81726	763.07385	1166.57715	439.79013	575.8974	1303.46301	470.53464	642.67114	1381.59985	425.03683	798.56873	1457.94336	340.58475	951.04382	1274.29077	75.58013	846.00543	1172.95496	428.47107	889.46936	1682.60938	277.6554	883.80273	1401.05005	211.53699	844.48627	1000.71588	321.50989	903.79669	721.54071	379.34772	860.50537	1446.35974	50.55707	668.66772	682.49689	64.51415	763.83002	1621.08923	258.49997	781.68243	1480.9812	179.66757	396.54538	370.09067	102.69823	267.71829	258.60327	138.23102	270.00986	108.77237	183.86896	778.39148	1626.58093	129.83679	1006.81738	356.03949	320.51379	684.42004	1339.12488	229.48792	242.39156	294.21539	177.2377	1035.66724	177.81537	259.59363	908.88263	1220.09473	218.60158	998.23511	166.88022	211.83583	1187.60791	119.15973	242.92976	708.276	1173.62854	187.13809	856.31763	1281.13013	-60.08184	904.40002	1693.77148	146.36217	707.90576	1033.39929	124.22542	704.56104	1043.45361	289.19434	848.10248	970.60272	111.96714	932.6944	1181.53418	-9.7048	977.62048	1211.57788	93.9149	1016.8609	1275.9259	144.18732	845.86279	1181.16724	-104.58357	NaN	NaN	NaN	794.62195	1722.86621	192.05635	NaN	NaN	NaN	NaN	NaN	NaN	NaN	NaN	NaN	NaN	NaN	NaN	NaN	NaN	NaN
70	0.69	642.23016	533.20325	94.36179	1008.4386	612.83215	342.15045	688.68872	1234.60718	462.12964	817.80133	1222.35815	401.94754	803.29883	1168.78857	437.96893	614.19196	1303.09131	469.89273	680.76245	1381.66016	425.2821	836.9339	1459.73413	341.31848	990.02728	1278.8739	75.2718	886.47009	1175.82947	426.7305	927.93555	1685.30249	278.37802	922.69659	1403.89673	211.89812	884.36108	1001.50824	321.58292	938.70624	714.7226	378.66058	898.9657	1449.65198	50.55791	713.02637	682.97522	63.6978	802.62872	1623.83813	259.73947	820.45801	1483.8252	180.53523	431.591	380.97476	100.80534	300.01419	272.93448	135.53526	301.9285	122.97697	179.0009	816.80011	1629.60693	131.06857	1050.43616	351.92734	317.21594	723.30481	1340.59521	229.8952	274.67285	308.67645	174.59627	1090.39941	176.90086	256.50128	948.45886	1222.97119	217.93744	1054.07043	166.61534	208.68373	1244.45227	119.98906	239.08627	748.27679	1176.24097	187.14337	895.25269	1284.10791	-60.15508	942.80981	1696.83765	147.42403	748.13745	1035.86157	123.15215	744.46088	1043.58105	288.45493	889.27209	973.38977	111.52159	971.97522	1185.35193	-9.35274	1016.40051	1216.25391	94.31944	1055.13184	1280.96289	144.69908	885.1687	1183.86487	-104.60703	NaN	NaN	NaN	833.14215	1725.82434	193.43782	NaN	NaN	NaN	NaN	NaN	NaN	NaN	NaN	NaN	NaN	NaN	NaN	NaN	NaN	NaN
71	0.7	687.15723	533.33057	92.69556	1040.86731	604.64746	339.80627	728.85382	1233.44812	461.09055	858.63818	1223.59619	401.43381	844.40277	1169.052	436.02542	653.38208	1301.0293	469.80951	719.13043	1380.23999	425.75772	875.27545	1460.60144	342.14111	1029.10645	1281.71411	74.66986	927.76605	1177.01025	425.11612	966.37781	1686.94666	279.01407	961.50116	1405.83789	212.15729	924.20459	1001.15918	321.3551	972.99371	706.60236	377.61157	937.61414	1451.91711	50.32535	757.54504	683.19885	62.2888	841.42181	1625.67798	261.07205	859.15417	1486.1853	181.18845	470.37241	390.25998	98.84309	334.26086	286.9614	133.13913	334.96579	136.81396	174.29477	855.16602	1631.9353	132.50385	1091.78601	348.29449	314.16559	762.30286	1340.8606	230.41675	309.58719	322.75339	173.03635	1139.50305	175.7905	253.1953	987.95288	1224.94189	217.36203	1104.76636	164.60843	205.23781	1295.94922	121.84196	235.0451	788.0603	1177.21338	187.05885	934.0932	1285.81519	-60.2263	981.10339	1699.03796	148.40973	788.03766	1037.10229	122.59804	784.03412	1042.87769	288.20969	930.30322	975.53088	110.86991	1010.74237	1187.8429	-9.56419	1055.36462	1219.17126	93.9882	1093.69971	1284.04907	144.76451	923.75916	1185.70093	-104.80307	NaN	NaN	NaN	871.65552	1727.84888	195.03403	NaN	NaN	NaN	NaN	NaN	NaN	NaN	NaN	NaN	NaN	NaN	NaN	NaN	NaN	NaN
72	0.71	733.46729	532.21307	90.79661	1073.74939	596.95471	337.29449	770.14813	1230.53479	460.44003	899.96606	1222.9364	400.6615	886.39453	1167.62524	434.14316	693.56848	1297.25916	470.13504	758.05176	1377.49524	426.36688	913.72125	1460.61584	343.0387	1068.05884	1282.8562	73.97354	970.00659	1176.52637	423.50537	1005.56586	1688.03711	280.2886	1000.2301	1406.87744	212.35568	963.72321	1000.07257	320.41705	1006.83307	698.39667	376.87289	976.31787	1453.07031	50.16113	802.25537	683.13434	60.92725	880.21661	1626.479	262.54883	898.28894	1487.62207	182.16316	511.63812	398.02722	97.2144	370.69012	300.39859	131.13435	370.03244	150.24271	169.32407	893.17242	1633.07361	133.87852	1130.47461	344.77832	311.56448	801.08246	1340.16418	231.24059	346.733	336.39868	172.10867	1182.9917	173.70944	249.91805	1027.26819	1226.03003	216.77303	1148.85352	161.94276	202.11705	1341.4563	122.85029	230.67825	827.46484	1176.6958	186.75241	972.30048	1286.42847	-59.97882	1019.26624	1700.28882	149.30164	826.99927	1036.9856	122.10689	823.67291	1041.69788	288.20438	971.28094	977.15955	109.78991	1048.95886	1188.9884	-10.23254	1094.40686	1220.32751	93.05241	1132.6366	1285.11194	144.23407	961.41809	1186.72986	-105.03378	NaN	NaN	NaN	909.95044	1728.90405	196.49001	NaN	NaN	NaN	NaN	NaN	NaN	NaN	NaN	NaN	NaN	NaN	NaN	NaN	NaN	NaN
73	0.72	781.60571	529.36023	88.72781	1107.1366	590.19299	334.79245	812.47272	1225.9093	460.0824	942.24731	1220.74304	400.09918	929.34552	1164.60999	432.48657	734.84509	1291.74976	470.62769	797.35565	1373.4397	427.11002	952.29193	1459.56213	344.03189	1106.86951	1282.34583	73.22173	1012.94165	1174.54932	421.81189	1044.83374	1688.07825	281.68213	1038.93457	1406.8999	212.52136	1003.42175	998.68701	318.9906	1040.25342	690.72504	376.27319	1014.85474	1453.28052	50.161	847.01178	682.24994	59.03976	918.95905	1626.50342	264.10352	936.95502	1487.75171	182.86006	554.95605	404.53058	95.74821	409.33572	313.46667	129.38266	407.57953	163.17281	164.23648	931.20483	1633.27014	135.35712	1166.46094	340.57681	309.00491	839.98273	1338.61902	232.17552	386.18912	349.26425	171.13676	1221.59387	169.83885	246.8266	1066.55334	1226.12244	216.25815	1187.89673	157.48218	198.75804	1381.01917	120.86012	226.07515	867.0625	1175.01062	186.30099	1010.56836	1286.31726	-60.219	1057.35327	1700.43469	150.20909	866.41107	1035.81433	121.55956	863.40063	1039.90088	287.93814	1012.12354	978.10468	108.31533	1086.63928	1188.88391	-11.31831	1133.37476	1219.69727	91.57174	1171.78967	1284.07861	143.15561	998.17181	1187.17468	-105.36036	NaN	NaN	NaN	948.30469	1728.98694	198.03217	NaN	NaN	NaN	NaN	NaN	NaN	NaN	NaN	NaN	NaN	NaN	NaN	NaN	NaN	NaN
74	0.73	831.35101	524.85333	86.36259	1141.1947	584.24841	332.67322	855.71143	1219.52222	460.08783	985.67841	1217.21765	399.53241	973.31207	1160.38354	431.20581	777.21436	1284.44788	471.34918	837.91522	1368.11865	428.40833	990.99951	1457.46765	344.97745	1145.46741	1280.18005	72.48145	1056.76111	1171.22205	420.09744	1083.44128	1686.83386	282.2843	1077.5752	1405.86487	212.64064	1043.20203	997.22003	317.29767	1074.70178	684.74713	375.36832	1053.15759	1452.52332	50.32707	892.57745	679.85938	57.26746	957.54968	1625.37952	265.62305	975.8302	1486.56067	184.03687	600.48181	409.49884	94.45088	451.06061	325.06989	127.78823	447.73685	175.10486	159.3997	969.30688	1632.49658	136.9838	1199.81848	335.1441	306.32425	878.58246	1336.25806	233.15346	428.26303	361.11603	169.89644	1254.87463	164.04875	242.8531	1105.6001	1225.33484	215.84526	1221.45532	152.483	195.68619	1414.62012	114.47403	221.14609	906.49634	1172.52234	185.60501	1047.77844	1285.6709	-60.46666	1095.4231	1699.53223	150.96896	906.12457	1033.625	120.66149	903.16272	1037.81482	287.14154	1052.62109	978.1568	106.89991	1123.75378	1187.52844	-12.73421	1172.20459	1217.31165	89.64307	1211.5022	1281.02832	141.48799	1034.12842	1186.95581	-105.5349	NaN	NaN	NaN	986.70313	1728.03296	199.55562	NaN	NaN	NaN	NaN	NaN	NaN	NaN	NaN	NaN	NaN	NaN	NaN	NaN	NaN	NaN
